<svg width="360" height="60" viewBox="0 0 360 60" fill="none" xmlns="http://www.w3.org/2000/svg">
<path d="M76.8177 30C76.8177 33.8 79.2977 37.28 84.2577 37.28C89.2177 37.28 91.6977 33.8 91.6977 30C91.6977 26.2 89.2177 22.72 84.2577 22.72C79.2977 22.72 76.8177 26.2 76.8177 30ZM88.6177 30C88.6177 32.46 87.1577 34.5 84.2577 34.5C81.3377 34.5 79.8777 32.46 79.8777 30C79.8777 27.54 81.3377 25.5 84.2577 25.5C87.1577 25.5 88.6177 27.54 88.6177 30ZM103.686 37.78V36.02C107.846 35.82 110.566 33.66 110.566 30C110.566 26.34 107.846 24.18 103.686 23.98V22.22H100.806V23.98C96.6058 24.16 93.8658 26.32 93.8658 30C93.8658 33.68 96.6058 35.84 100.806 36.02V37.78H103.686ZM96.8658 30C96.8658 28.22 97.9058 26.68 100.806 26.48V33.52C97.9058 33.32 96.8658 31.78 96.8658 30ZM103.686 26.48C106.526 26.7 107.566 28.24 107.566 30C107.566 31.76 106.526 33.3 103.686 33.52V26.48ZM112.724 30C112.724 33.8 115.204 37.28 120.164 37.28C125.124 37.28 127.604 33.8 127.604 30C127.604 26.2 125.124 22.72 120.164 22.72C115.204 22.72 112.724 26.2 112.724 30ZM124.524 30C124.524 32.46 123.064 34.5 120.164 34.5C117.244 34.5 115.784 32.46 115.784 30C115.784 27.54 117.244 25.5 120.164 25.5C123.064 25.5 124.524 27.54 124.524 30ZM130.832 23V37H133.832V32.4H136.112C139.492 32.4 142.152 31.32 142.152 27.7C142.152 24.08 139.492 23 136.112 23H130.832ZM139.092 27.7C139.092 29.34 137.792 29.76 136.252 29.76H133.832V25.64H136.252C137.792 25.64 139.092 26.04 139.092 27.7ZM157.532 23L152.752 30.28L147.952 23H145.172V37H148.172V28.36L151.872 34H153.612L157.312 28.38V37H160.312V23H157.532ZM176.596 37V23H173.776L167.256 32.14C167.296 31.56 167.316 30.86 167.316 30.22V23H164.316V37H167.136L173.656 27.86C173.616 28.44 173.596 29.14 173.596 29.78V37H176.596ZM179.35 23V25.7H183.65V37H186.63V25.7H190.93V23H179.35ZM198.979 37C202.359 37 205.019 35.92 205.019 32.3C205.019 28.68 202.359 27.62 198.979 27.6H196.699V23H193.699V37H198.979ZM196.699 30.24H199.119C200.659 30.24 201.959 30.66 201.959 32.3C201.959 33.94 200.659 34.36 199.119 34.36H196.699V30.24ZM223.713 33.2C223.713 31.1 222.373 30 220.913 29.6C222.273 29.14 223.153 28.08 223.153 26.54C223.153 23.96 220.913 22.72 217.633 22.72C216.173 22.72 214.613 22.96 212.993 23.64V26.5C214.693 25.68 216.113 25.4 217.373 25.42C219.153 25.42 220.153 25.9 220.153 27.02C220.153 28 219.293 28.48 217.973 28.48H215.033L215.013 31.12H218.173C219.533 31.12 220.693 31.46 220.693 32.76C220.693 34.2 219.233 34.58 217.713 34.58C216.233 34.6 214.593 34.4 212.753 33.5V36.38C214.613 37.04 216.273 37.28 217.933 37.28C220.713 37.28 223.713 36.32 223.713 33.2ZM228.183 37L229.223 34.38H235.623L236.643 37H239.743L234.043 23H230.803L225.083 37H228.183ZM232.103 26.88C232.223 26.6 232.323 26.32 232.423 25.78C232.523 26.32 232.623 26.6 232.723 26.88L234.683 31.9H230.163L232.103 26.88ZM245.309 37V31.28H247.569L251.389 37H254.709L249.909 29.82L254.449 23H251.109L247.569 28.56H245.309V23H242.309V37H245.309ZM258.797 37L259.837 34.38H266.237L267.257 37H270.357L264.657 23H261.417L255.697 37H258.797ZM262.717 26.88C262.837 26.6 262.937 26.32 263.037 25.78C263.137 26.32 263.237 26.6 263.337 26.88L265.297 31.9H260.777L262.717 26.88ZM283.162 33.2C283.162 31.1 281.822 30 280.362 29.6C281.722 29.14 282.602 28.08 282.602 26.54C282.602 23.96 280.362 22.72 277.082 22.72C275.622 22.72 274.062 22.96 272.442 23.64V26.5C274.142 25.68 275.562 25.4 276.822 25.42C278.602 25.42 279.602 25.9 279.602 27.02C279.602 28 278.742 28.48 277.422 28.48H274.482L274.462 31.12H277.622C278.982 31.12 280.142 31.46 280.142 32.76C280.142 34.2 278.682 34.58 277.162 34.58C275.682 34.6 274.042 34.4 272.202 33.5V36.38C274.062 37.04 275.722 37.28 277.382 37.28C280.162 37.28 283.162 36.32 283.162 33.2Z" fill="white"/>
<rect x="1" y="1" width="358" height="58" stroke="white" stroke-width="2"/>
</svg>
