<svg width="108" height="33" viewBox="0 0 108 33" fill="none" xmlns="http://www.w3.org/2000/svg">
<path d="M1.472 10.8V22H9.12V20.72H2.816V16.992H8.544V15.712H2.816V12.08H9.024V10.8H1.472ZM13.5379 22V14C13.5379 13.68 13.5379 13.36 13.5379 13.04L20.2739 22H21.5219V10.8H20.1779V18.784C20.1779 19.104 20.1779 19.424 20.1779 19.744L13.4419 10.8H12.1939V22H13.5379ZM24.5235 16.4C24.5235 20.624 27.5315 22.192 30.6035 22.192C31.8195 22.192 33.0675 21.92 34.1075 21.44V16.048H32.7635V20.496C32.2035 20.768 31.4515 20.912 30.6995 20.912C28.3475 20.912 25.8835 19.776 25.8835 16.4C25.8835 13.2 28.3155 11.888 30.6675 11.888C31.8355 11.888 32.9715 12.16 33.8355 12.704V11.36C32.8435 10.864 31.6595 10.608 30.4755 10.608C27.4995 10.608 24.5235 12.544 24.5235 16.4Z" fill="white" fill-opacity="0.4"/>
<g filter="url(#filter0_d_288_1290)">
<path d="M66.816 22V17.584H69.504L73.168 22H74.848L71.056 17.472C72.64 17.184 74.048 16.256 74.048 14.192C74.048 11.632 71.872 10.8 69.856 10.8H65.472V22H66.816ZM66.816 12.08H69.92C71.264 12.08 72.688 12.512 72.688 14.192C72.688 15.856 71.264 16.304 69.92 16.304H66.816V12.08ZM85.285 10.8V17.84C85.285 20.112 83.877 20.912 81.957 20.912C80.021 20.912 78.613 20.112 78.613 17.84V10.8H77.269V17.904C77.269 21.104 79.461 22.192 81.957 22.192C84.437 22.192 86.629 21.104 86.629 17.904V10.8H85.285ZM89.5719 13.568C89.5719 17.504 96.2439 16.24 96.2439 19.248C96.2439 20.512 94.9159 20.912 93.3639 20.912C92.0839 20.912 90.8039 20.608 89.6199 19.888V21.232C90.7079 21.84 92.0039 22.192 93.4599 22.192C95.6039 22.208 97.6039 21.376 97.6039 19.152C97.6039 15.136 90.9319 16.352 90.9319 13.52C90.9319 12.32 92.0359 11.888 93.5079 11.888C94.6599 11.872 95.9079 12.192 96.8039 12.768V11.424C95.9079 10.912 94.6439 10.608 93.4119 10.608C91.3799 10.608 89.5719 11.568 89.5719 13.568Z" fill="white"/>
</g>
<path d="M50.464 23.6V9.04H49.12V23.6H50.464Z" fill="white" fill-opacity="0.4"/>
<defs>
<filter id="filter0_d_288_1290" x="55.4722" y="0.608032" width="52.1318" height="31.6" filterUnits="userSpaceOnUse" color-interpolation-filters="sRGB">
<feFlood flood-opacity="0" result="BackgroundImageFix"/>
<feColorMatrix in="SourceAlpha" type="matrix" values="0 0 0 0 0 0 0 0 0 0 0 0 0 0 0 0 0 0 127 0" result="hardAlpha"/>
<feOffset/>
<feGaussianBlur stdDeviation="5"/>
<feColorMatrix type="matrix" values="0 0 0 0 1 0 0 0 0 1 0 0 0 0 1 0 0 0 0.7 0"/>
<feBlend mode="normal" in2="BackgroundImageFix" result="effect1_dropShadow_288_1290"/>
<feBlend mode="normal" in="SourceGraphic" in2="effect1_dropShadow_288_1290" result="shape"/>
</filter>
</defs>
</svg>
