<svg width="224" height="23" viewBox="0 0 224 23" fill="none" xmlns="http://www.w3.org/2000/svg">
<path d="M17.44 17.14H6.94L4.87 22H0.85L10.3 0.999999H14.14L23.62 22H19.54L17.44 17.14ZM16.15 14.08L12.19 4.9L8.26 14.08H16.15ZM45.0407 18.73V22H29.2907V0.999999H44.6207V4.27H33.1907V9.73H43.3307V12.94H33.1907V18.73H45.0407ZM66.1284 22L61.8384 15.85C61.6584 15.87 61.3884 15.88 61.0284 15.88H56.2884V22H52.3884V0.999999H61.0284C62.8484 0.999999 64.4284 1.3 65.7684 1.9C67.1284 2.5 68.1684 3.36 68.8884 4.48C69.6084 5.6 69.9684 6.93 69.9684 8.47C69.9684 10.05 69.5784 11.41 68.7984 12.55C68.0384 13.69 66.9384 14.54 65.4984 15.1L70.3284 22H66.1284ZM66.0384 8.47C66.0384 7.13 65.5984 6.1 64.7184 5.38C63.8384 4.66 62.5484 4.3 60.8484 4.3H56.2884V12.67H60.8484C62.5484 12.67 63.8384 12.31 64.7184 11.59C65.5984 10.85 66.0384 9.81 66.0384 8.47ZM87.1417 22.3C85.0017 22.3 83.0717 21.84 81.3517 20.92C79.6317 19.98 78.2817 18.69 77.3017 17.05C76.3217 15.39 75.8317 13.54 75.8317 11.5C75.8317 9.46 76.3217 7.62 77.3017 5.98C78.2817 4.32 79.6317 3.03 81.3517 2.11C83.0717 1.17 85.0017 0.699999 87.1417 0.699999C89.2817 0.699999 91.2117 1.17 92.9317 2.11C94.6517 3.03 96.0017 4.31 96.9817 5.95C97.9617 7.59 98.4517 9.44 98.4517 11.5C98.4517 13.56 97.9617 15.41 96.9817 17.05C96.0017 18.69 94.6517 19.98 92.9317 20.92C91.2117 21.84 89.2817 22.3 87.1417 22.3ZM87.1417 18.88C88.5417 18.88 89.8017 18.57 90.9217 17.95C92.0417 17.31 92.9217 16.43 93.5617 15.31C94.2017 14.17 94.5217 12.9 94.5217 11.5C94.5217 10.1 94.2017 8.84 93.5617 7.72C92.9217 6.58 92.0417 5.7 90.9217 5.08C89.8017 4.44 88.5417 4.12 87.1417 4.12C85.7417 4.12 84.4817 4.44 83.3617 5.08C82.2417 5.7 81.3617 6.58 80.7217 7.72C80.0817 8.84 79.7617 10.1 79.7617 11.5C79.7617 12.9 80.0817 14.17 80.7217 15.31C81.3617 16.43 82.2417 17.31 83.3617 17.95C84.4817 18.57 85.7417 18.88 87.1417 18.88ZM114.676 22.12C112.076 22.12 110.046 21.36 108.586 19.84C107.146 18.32 106.426 16.09 106.426 13.15V0.999999H107.446V13.12C107.446 15.8 108.066 17.82 109.306 19.18C110.546 20.52 112.336 21.19 114.676 21.19C116.996 21.19 118.776 20.52 120.016 19.18C121.276 17.82 121.906 15.8 121.906 13.12V0.999999H122.896V13.15C122.896 16.09 122.176 18.32 120.736 19.84C119.296 21.36 117.276 22.12 114.676 22.12ZM151.665 0.999999V22H150.825L135.915 2.86V22H134.895V0.999999H135.735L150.645 20.14V0.999999H151.665ZM163.858 0.999999H164.878V22H163.858V0.999999ZM185.759 22.12C183.719 22.12 181.869 21.66 180.209 20.74C178.569 19.82 177.279 18.55 176.339 16.93C175.399 15.31 174.929 13.5 174.929 11.5C174.929 9.5 175.399 7.69 176.339 6.07C177.279 4.45 178.569 3.18 180.209 2.26C181.869 1.34 183.719 0.879998 185.759 0.879998C187.799 0.879998 189.649 1.34 191.309 2.26C192.969 3.18 194.269 4.45 195.209 6.07C196.149 7.69 196.619 9.5 196.619 11.5C196.619 13.5 196.149 15.31 195.209 16.93C194.269 18.55 192.969 19.82 191.309 20.74C189.649 21.66 187.799 22.12 185.759 22.12ZM185.759 21.19C187.599 21.19 189.269 20.77 190.769 19.93C192.269 19.09 193.449 17.93 194.309 16.45C195.169 14.97 195.599 13.32 195.599 11.5C195.599 9.68 195.169 8.03 194.309 6.55C193.449 5.07 192.269 3.91 190.769 3.07C189.269 2.23 187.599 1.81 185.759 1.81C183.919 1.81 182.249 2.23 180.749 3.07C179.269 3.91 178.099 5.07 177.239 6.55C176.379 8.03 175.949 9.68 175.949 11.5C175.949 13.32 176.379 14.97 177.239 16.45C178.099 17.93 179.269 19.09 180.749 19.93C182.249 20.77 183.919 21.19 185.759 21.19ZM223.436 0.999999V22H222.596L207.686 2.86V22H206.666V0.999999H207.506L222.416 20.14V0.999999H223.436Z" fill="white"/>
</svg>
